<?xml version="1.0" standalone="no"?>
<!DOCTYPE svg PUBLIC "-//W3C//DTD SVG 20010904//EN"
 "http://www.w3.org/TR/2001/REC-SVG-20010904/DTD/svg10.dtd">
<svg version="1.0" xmlns="http://www.w3.org/2000/svg"
 width="512.000000pt" height="512.000000pt" viewBox="0 0 512.000000 512.000000"
 preserveAspectRatio="xMidYMid meet">
<metadata>
Created by potrace 1.16, written by Peter Selinger 2001-2019
</metadata>
<g transform="translate(0.000000,512.000000) scale(0.100000,-0.100000)"
fill="#000000" stroke="none">
<path d="M2280 4789 c-124 -15 -318 -58 -448 -100 -848 -276 -1458 -996 -1599
-1889 -25 -161 -25 -539 0 -695 171 -1050 953 -1822 2007 -1982 156 -23 481
-23 641 0 422 62 822 234 1154 497 324 256 601 649 744 1054 142 402 169 874
75 1295 -193 861 -853 1543 -1708 1762 -195 50 -281 60 -541 64 -137 2 -284
-1 -325 -6z m610 -234 c458 -78 856 -282 1173 -602 127 -128 187 -202 280
-343 160 -245 275 -545 321 -845 114 -740 -189 -1506 -782 -1977 l-77 -61 -7
284 c-5 241 -9 297 -27 367 -76 303 -297 532 -601 623 -73 22 -90 23 -574 27
-432 3 -511 1 -580 -13 -331 -67 -584 -309 -667 -637 -18 -70 -22 -126 -27
-367 l-7 -284 -77 61 c-390 310 -665 760 -763 1245 -123 615 33 1258 423 1747
138 173 365 371 562 493 228 140 548 254 805 286 50 6 101 13 115 15 58 10
420 -3 510 -19z m167 -2760 c183 -34 353 -162 441 -331 69 -134 73 -165 70
-551 l-3 -337 -65 -38 c-140 -81 -346 -148 -575 -189 -153 -27 -465 -37 -615
-20 -295 34 -550 115 -722 228 l-38 26 0 336 c0 356 5 402 51 506 80 182 264
332 454 369 105 21 893 22 1002 1z"/>
<path d="M2410 4046 c-357 -65 -627 -313 -722 -667 -31 -117 -31 -326 1 -444
69 -255 247 -472 477 -582 145 -69 223 -86 394 -86 173 0 254 18 397 88 233
115 408 329 474 580 28 105 31 326 6 428 -82 329 -329 582 -652 666 -103 27
-275 35 -375 17z m347 -242 c234 -78 405 -261 459 -490 78 -335 -111 -677
-435 -790 -147 -51 -295 -51 -442 0 -243 84 -420 307 -449 563 -41 366 236
708 599 741 90 8 201 -1 268 -24z"/>
</g>
</svg>
