<?xml version="1.0" standalone="no"?>
<!DOCTYPE svg PUBLIC "-//W3C//DTD SVG 20010904//EN"
 "http://www.w3.org/TR/2001/REC-SVG-20010904/DTD/svg10.dtd">
<svg version="1.0" xmlns="http://www.w3.org/2000/svg"
 width="512.000000pt" height="512.000000pt" viewBox="0 0 512.000000 512.000000"
 preserveAspectRatio="xMidYMid meet">
<metadata>
Created by potrace 1.16, written by Peter Selinger 2001-2019
</metadata>
<g transform="translate(0.000000,512.000000) scale(0.100000,-0.100000)"
fill="#000000" stroke="none">
<path d="M4130 5114 c-8 -4 -165 -155 -347 -338 l-333 -331 0 -365 0 -365
-536 -535 c-361 -360 -542 -548 -555 -575 -52 -111 21 -241 140 -253 97 -9 82
-21 667 564 l542 544 369 0 369 0 326 328 c303 304 327 330 335 372 19 95 -28
177 -114 198 -21 6 -168 13 -327 16 -159 3 -290 7 -292 9 -2 2 -6 136 -10 298
-3 162 -10 310 -15 329 -5 20 -24 51 -44 70 -31 30 -42 34 -98 37 -34 1 -69 0
-77 -3z"/>
<path d="M2385 4963 c-636 -30 -1203 -280 -1651 -727 -509 -510 -761 -1171
-723 -1901 55 -1046 777 -1949 1795 -2245 362 -104 818 -120 1198 -41 972 204
1730 974 1925 1956 31 156 42 284 42 485 0 199 -15 339 -57 530 -21 98 -79
296 -90 309 -2 2 -45 -35 -94 -83 -59 -57 -111 -97 -148 -114 -54 -26 -66 -27
-244 -30 -208 -4 -198 0 -173 -73 101 -284 114 -668 34 -982 -124 -490 -469
-916 -929 -1147 -367 -185 -826 -231 -1225 -125 -494 132 -904 466 -1132 919
-216 430 -245 943 -77 1394 243 657 847 1107 1544 1151 233 15 492 -21 698
-97 9 -3 12 35 12 173 0 131 4 191 16 231 17 60 76 144 153 219 28 27 51 52
51 56 0 10 -152 56 -277 84 -186 41 -467 67 -648 58z"/>
<path d="M2374 3879 c-248 -19 -505 -114 -715 -266 -105 -75 -261 -237 -332
-344 -227 -342 -296 -757 -193 -1155 114 -440 462 -812 901 -962 164 -56 240
-67 455 -67 215 0 291 11 455 67 467 160 820 560 920 1043 35 167 35 401 0
570 -17 82 -59 220 -75 245 -7 12 -67 -42 -265 -240 l-255 -255 0 -58 c0 -141
-67 -326 -165 -456 -92 -120 -242 -222 -405 -273 -63 -19 -96 -23 -210 -23
-114 0 -147 4 -210 23 -198 63 -348 176 -452 342 -246 393 -93 913 327 1115
80 39 218 75 285 75 l45 0 264 264 263 264 -63 21 c-102 33 -227 60 -309 66
-41 3 -95 7 -120 9 -25 2 -91 0 -146 -5z"/>
</g>
</svg>
