<?xml version="1.0" standalone="no"?>
<!DOCTYPE svg PUBLIC "-//W3C//DTD SVG 20010904//EN"
 "http://www.w3.org/TR/2001/REC-SVG-20010904/DTD/svg10.dtd">
<svg version="1.0" xmlns="http://www.w3.org/2000/svg"
 width="512.000000pt" height="512.000000pt" viewBox="0 0 512.000000 512.000000"
 preserveAspectRatio="xMidYMid meet">
<metadata>
Created by potrace 1.16, written by Peter Selinger 2001-2019
</metadata>
<g transform="translate(0.000000,512.000000) scale(0.100000,-0.100000)"
fill="#000000" stroke="none">
<path d="M2405 5101 c-154 -44 -298 -162 -370 -303 l-40 -78 -424 0 c-471 0
-485 -2 -615 -67 -96 -48 -201 -153 -249 -249 -72 -143 -67 12 -67 -2044 0
-2056 -5 -1901 67 -2044 48 -96 153 -201 249 -249 142 -71 36 -67 1609 -67
1576 0 1471 -4 1610 68 93 49 198 154 247 247 73 141 68 -14 68 2045 0 2056 5
1901 -67 2044 -48 96 -153 201 -249 249 -130 65 -145 67 -610 67 l-419 0 -40
78 c-74 145 -224 266 -381 306 -83 21 -240 20 -319 -3z m261 -416 c27 -16 54
-43 70 -71 25 -42 28 -58 32 -170 l5 -124 198 0 199 0 0 -195 0 -195 -600 0
-600 0 0 195 0 195 199 0 198 0 5 124 c4 111 8 128 32 169 54 94 170 126 262
72z m-1096 -760 l0 -395 1000 0 1000 0 0 396 0 396 183 -3 c178 -4 183 -5 229
-32 31 -18 57 -44 75 -75 l28 -47 0 -1800 0 -1801 -26 -49 c-18 -35 -39 -59
-74 -80 l-48 -30 -1371 0 -1371 0 -47 28 c-31 18 -57 44 -75 75 l-28 47 0
1805 0 1805 27 47 c30 51 82 88 137 99 20 4 109 7 199 8 l162 1 0 -395z"/>
<path d="M1440 2930 l0 -200 1125 0 1125 0 0 200 0 200 -1125 0 -1125 0 0
-200z"/>
<path d="M1440 2130 l0 -200 1125 0 1125 0 0 200 0 200 -1125 0 -1125 0 0
-200z"/>
<path d="M3155 1420 c-132 -132 -243 -239 -247 -238 -3 2 -61 55 -129 118
l-122 114 -138 -144 c-76 -80 -137 -150 -136 -156 2 -11 523 -504 533 -504 3
0 178 170 389 377 l383 377 -140 146 c-77 80 -143 146 -147 148 -3 1 -114
-106 -246 -238z"/>
<path d="M1440 1330 l0 -200 300 0 300 0 0 200 0 200 -300 0 -300 0 0 -200z"/>
</g>
</svg>
